PathFileType	4	(X/Y/Z)	RBDS010\RBDS010runT35.trc
DataRate	CameraRate	NumFrames	NumMarkers	Units	OrigDataRate	OrigDataStartFrame	OrigNumFrames
150.000000	150.000000	4	32	mm	150.000000	1125	4500
Frame#	Time	L.ASIS			L.Heel.Bottom			L.Heel.Lateral			L.Heel.Top			L.Iliac.Crest			L.MT5			L.PSIS			L.Shank.Bottom.Lateral			L.Shank.Bottom.Medial			L.Shank.Top.Lateral			L.Shank.Top.Medial			L.Thigh.Bottom.Lateral			L.Thigh.Bottom.Medial			L.Thigh.Top.Lateral			L.Thigh.Top.Medial			R.ASIS			R.ASY			R.Heel.Bottom			R.Heel.Lateral			R.Heel.Top			R.Iliac.Crest			R.MT1			R.MT5			R.PSIS			R.Shank.Bottom.Lateral			R.Shank.Bottom.Medial			R.Shank.Top.Lateral			R.Shank.Top.Medial			R.Thigh.Bottom.Lateral			R.Thigh.Bottom.Medial			R.Thigh.Top.Lateral			R.Thigh.Top.Medial			
		X1	Y1	Z1	X2	Y2	Z2	X3	Y3	Z3	X4	Y4	Z4	X5	Y5	Z5	X6	Y6	Z6	X7	Y7	Z7	X8	Y8	Z8	X9	Y9	Z9	X10	Y10	Z10	X11	Y11	Z11	X12	Y12	Z12	X13	Y13	Z13	X14	Y14	Z14	X15	Y15	Z15	X16	Y16	Z16	X17	Y17	Z17	X18	Y18	Z18	X19	Y19	Z19	X20	Y20	Z20	X21	Y21	Z21	X22	Y22	Z22	X23	Y23	Z23	X24	Y24	Z24	X25	Y25	Z25	X26	Y26	Z26	X27	Y27	Z27	X28	Y28	Z28	X29	Y29	Z29	X30	Y30	Z30	X31	Y31	Z31	X32	Y32	Z32	

1126	7.500000000000001	2330.225919603435	913.4178079689816	856.4890703751365	2173.00848661569	32.12901539526981	972.2930722773478	2199.942472509385	47.37476652338991	925.5986532038489	2185.819388111293	82.54732695123663	972.5768897308581	2280.420196951362	995.0882091286128	829.7411496287486	2361.601603700207	41.8472119575376	893.5886386698901	2169.671142753227	959.9478977513411	946.0501645552887	2270.135032253773	154.1470495160794	903.1045570991666	2236.772166635516	174.3133915453426	940.3817694264212	2289.812480407058	228.148346772976	878.9594930572135	2257.484401255152	249.4073740658761	916.7880871914564	2361.040899280621	532.0152388376637	833.7041931944748	2313.372522195602	509.1389015612732	883.3261858679281	2297.226120149456	620.271564931663	816.1549717649286	2252.477121971571	599.4851664400443	863.4223356590168	2351.245104576778	892.0195634220838	1085.134219154427	1882.536833704024	344.3081229657458	1039.652597840081	1840.761268779025	528.2337377296551	1031.494059640276	1856.195724621061	500.1741877535795	1077.120993736095	1888.258155971718	514.1674795921786	1034.80847676232	2300.924450751557	975.2629436623556	1131.896020944381	1831.96011157125	318.6970281346894	984.5963500595121	1826.269549659831	338.7365601588364	1098.027609524298	2182.123789209968	954.6039497963982	1043.806803055926	1978.892345166849	443.2108742247043	1086.003141099885	1982.814772200147	485.6794688240716	1057.248174367156	2063.511714086101	443.1883923831784	1095.262826960758	2063.218879847443	487.9530354819324	1065.652982641681	2283.618287647328	511.3502378965457	1123.049478359724	2222.957983898747	505.8948494208566	1081.356494414807	2259.884240227348	617.3175096384688	1139.607681022522	2201.326164286636	612.675693377155	1103.411119584241	
1127	7.506666666666667	2328.328599841951	909.8110549247857	856.451837745807	2149.596652899778	33.64295834435614	971.9437688088386	2176.575020246071	48.48888478410878	925.1693426424408	2162.69179553643	83.95776519073701	971.9483319098493	2278.76859389661	990.609348548305	828.8585596557448	2337.963918367742	42.03609198773826	893.4480596412861	2167.501208208475	957.5917945364582	945.2524509499887	2250.694064483008	155.1346295697873	902.3595465369194	2217.714466976216	176.7615606729637	939.2275526120793	2273.654522269406	228.2301662558374	878.3098608104702	2241.8440570145	250.8861794715998	915.7959522679646	2354.713423462657	528.0073012321255	833.6485925682971	2306.687629765503	505.7362675589484	883.1732423585959	2292.041636562808	617.1080469246619	815.9695477296744	2247.021143449804	596.8453549275582	863.1503679730205	2348.412375104973	889.5961467423944	1085.587068102761	1901.001817241784	342.8052646857937	1040.792771055579	1855.915570189516	525.9356664797123	1033.469478633425	1872.663352919638	498.2886035526084	1078.971530971208	1903.704764920972	512.600806381991	1035.822687825366	2295.381044575029	971.9771999185248	1132.119021516401	1849.745348704409	316.3156302365307	986.8585428624123	1846.149171332131	336.3202635862908	1100.355907340481	2179.177567137268	951.9960441280862	1042.828858107869	1995.670686205274	441.9561014700564	1087.074393393979	1999.60203913161	484.4847928564099	1058.423827681951	2080.244885571367	441.9199712094142	1096.461340015458	2080.017751093536	486.7051592446827	1066.869464213456	2295.807270190075	510.4309546578671	1124.986147158491	2235.241778815354	501.9931559818908	1083.709089258447	2267.43003205711	615.3431914353687	1141.100221707895	2208.916506816262	607.7245457700652	1105.373392766409	
1128	7.513333333333334	2326.484942412103	906.7608057036126	856.4717355925161	2126.431084917495	35.5855385720365	971.62486363595	2153.445180204656	49.85113081591258	924.7263663838885	2139.902791906525	85.75257342247525	971.2203631505023	2277.054538678047	986.913185433496	828.0608347232752	2314.470772707781	42.06442230316771	893.2209678716997	2165.533913830386	955.8872021871948	944.5427359505926	2231.044022567704	156.2258228857898	901.4414016644704	2198.566072353468	179.151801870018	938.0109692052665	2256.931253925169	228.3290299307302	877.4992299782022	2225.736263737479	252.2299191233361	914.7443585168537	2347.220118647101	524.165492270575	833.4030007584541	2298.714875304247	502.6032311934581	882.7473165002569	2286.020184909543	614.3574184917393	815.709375349084	2240.655984637831	594.7229722989716	862.7597193874886	2345.739925123233	887.7460740409897	1086.012363476408	1919.947446029677	340.0008342982325	1041.873613558837	1870.629538638232	522.0653577528143	1035.431068428293	1888.728455575017	494.8800041006263	1080.738703135871	1918.727256120517	509.6831131045761	1036.832364840797	2289.947473179187	969.4010778718241	1132.323318397893	1868.298415511827	312.4501554662211	988.9150188785517	1866.410208422752	332.3231283535974	1102.403628423812	2176.466735535053	950.0480826561436	1041.967288323859	2012.359822092063	439.975567797734	1088.178641911728	2015.989886677014	482.6104268758691	1059.664095349669	2096.843013816809	440.5782980811242	1097.734774817251	2096.377044928044	485.3685349442143	1068.167936679197	2308.116747781424	510.7769142979924	1126.993280006773	2247.894403246694	499.3240354668388	1086.022737678584	2275.0441072869	614.375976740653	1142.64061774781	2216.758795586792	603.7283626332331	1107.300796754603	
1129	7.52	2324.705490964603	904.3051006574398	856.5067756383288	2103.459784678244	37.9644035497953	971.3898818672764	2130.509878845579	51.5231710124214	924.3389710099843	2117.417905566635	87.93899421853472	970.5150786369892	2275.337443713025	984.0817790687345	827.3846223156816	2291.065919839636	41.98126930398375	892.9718385059015	2163.773430114841	954.7982415805226	943.9548031392775	2211.161324457222	157.4215991121988	900.4874666124607	2179.29364972129	181.4955114153156	936.8726069197801	2239.639474506882	228.4828933924334	876.6285380758432	2209.145713756427	253.4888463076572	913.7326749660597	2338.665829094627	520.5714276938264	832.9676717878514	2289.569576431824	499.8134976532644	882.0511553043223	2279.245567098742	612.0602348070012	815.3649902834619	2233.468396324156	593.1561673083781	862.2424404198892	2343.306466106788	886.4450330752886	1086.351945815872	1939.268701011222	335.9646986145	1042.880295507315	1884.844748838454	516.626054036944	1037.370244924329	1904.319871253404	489.9633591111349	1082.412504466994	1933.251310197928	505.4240517522459	1037.849611141959	2284.923257924335	967.5320444743789	1132.497365913606	1887.523537926218	307.1716020015074	990.730193840144	1886.944557422305	326.8285396501445	1104.157891951575	2174.041409965957	948.7435716041973	1041.261848470247	2028.858353435957	437.2671556236396	1089.304785824911	2031.877738719219	480.0598772620731	1060.974818516354	2113.203830455111	439.1409095990543	1099.062832694076	2112.18861745958	483.9358928994327	1069.557851396557	2320.40971851337	512.3600927463629	1129.016811205005	2260.782636460647	497.9008725979386	1088.22418353098	2282.635052614521	614.3878489448883	1144.181705350515	2224.765393056653	600.7038132814216	1109.121505399536	
